<svg xmlns="http://www.w3.org/2000/svg" xmlns:xlink="http://www.w3.org/1999/xlink" width="20" height="20" viewBox="0 0 20 20">
  <defs>
    <clipPath id="clip-path">
      <rect id="Rectangle_20" data-name="Rectangle 20" width="20" height="20" fill="none"/>
    </clipPath>
  </defs>
  <g id="Bug_Small" transform="translate(10 10)">
    <g id="Group_23" data-name="Group 23" transform="translate(-10 -10)" clip-path="url(#clip-path)">
      <g id="Group_22" data-name="Group 22">
        <path id="Path_71" data-name="Path 71" d="M65.617,25.5a1.527,1.527,0,0,0-.618.145,1.618,1.618,0,0,0-.873.855,1.564,1.564,0,0,0-.127.636v3.455a1.618,1.618,0,0,0,.109.618,1.691,1.691,0,0,0,.327.509,1.709,1.709,0,0,0,.473.364,1.418,1.418,0,0,0,.582.145L64,35.682h1.073l1.436-3.309v3.309h.964V25.518H65.617Zm-.655,1.618a.636.636,0,0,1,.182-.473.618.618,0,0,1,.455-.182h.909v4.782H65.6a.618.618,0,0,1-.455-.182.636.636,0,0,1-.182-.473Z" transform="translate(-52.362 -20.864)" fill="#fff"/>
        <path id="Path_72" data-name="Path 72" d="M28.927,25.626a1.654,1.654,0,0,1,.509.345,1.709,1.709,0,0,1,.345.527,1.582,1.582,0,0,1,.127.636V28.3h-.964V27.135a.655.655,0,0,0-.182-.473.636.636,0,0,0-.473-.182h-.255a.636.636,0,0,0-.473.182.655.655,0,0,0-.182.473v1.945a.618.618,0,0,0,.273.545l1.582,1.127a1.6,1.6,0,0,1,.691,1.327v1.964a1.545,1.545,0,0,1-.127.636,1.636,1.636,0,0,1-.855.873,1.527,1.527,0,0,1-.636.127h-.255a1.527,1.527,0,0,1-.636-.127,1.636,1.636,0,0,1-.855-.873,1.546,1.546,0,0,1-.127-.636V32.881H27.4v1.164a.655.655,0,0,0,.182.473.636.636,0,0,0,.473.182h.255a.636.636,0,0,0,.455-.182.655.655,0,0,0,.182-.473V32.1a.618.618,0,0,0-.273-.545l-1.582-1.127A1.6,1.6,0,0,1,26.4,29.1V27.135a1.582,1.582,0,0,1,.145-.636,1.691,1.691,0,0,1,.345-.527,1.636,1.636,0,0,1,.509-.345,1.527,1.527,0,0,1,.636-.127h.255a1.527,1.527,0,0,1,.636.145" transform="translate(-21.6 -20.863)" fill="#fff"/>
        <g id="Group_21" data-name="Group 21" opacity="0.5">
          <g id="Group_20" data-name="Group 20" clip-path="url(#clip-path)">
            <path id="Path_73" data-name="Path 73" d="M14.273.727a5,5,0,0,1,5,5v8.545a5,5,0,0,1-5,5H5.727a5,5,0,0,1-5-5V5.727a5,5,0,0,1,5-5h8.545m0-.727H5.727A5.727,5.727,0,0,0,0,5.727v8.545A5.727,5.727,0,0,0,5.727,20h8.545A5.727,5.727,0,0,0,20,14.273V5.727A5.727,5.727,0,0,0,14.273,0" fill="#fff"/>
          </g>
        </g>
      </g>
    </g>
  </g>
</svg>
